# xmcd
#
# Track frame offsets: 
#        150
#        18430
#        64022
#        90069
#        128671
#        146131
#
# Disc length: 2267 seconds
#
# Revision: 0
# Processed by: cddbd v1.5.2PL0 Copyright (c) Steve Scherf et al.
# Submitted via: ExactAudioCopy v1.1
#
DISCID=4408d906
DTITLE=Albert King - Live Wire - Blues Power (stax Lp 2003)
DYEAR=1968
DGENRE=Blues
TTITLE0=Watermelon Man (live) (stereo)
TTITLE1=Blues Power (live) (stereo)
TTITLE2=Night Stomp (live) (stereo)
TTITLE3=Blues At Sunrise (live) (stereo)
TTITLE4=Please Love Me (live) (stereo)
TTITLE5=Look Out (live) (stereo)
EXTD=
EXTT0=
EXTT1=
EXTT2=
EXTT3=
EXTT4=
EXTT5=
PLAYORDER=
